<?xml version="1.0" encoding="utf-8"?>
<!-- Generator: Adobe Illustrator 24.3.0, SVG Export Plug-In . SVG Version: 6.00 Build 0)  -->
<svg version="1.1" id="Square_Black" xmlns="http://www.w3.org/2000/svg" xmlns:xlink="http://www.w3.org/1999/xlink" x="0px"
	 y="0px" viewBox="0 0 85 85" style="enable-background:new 0 0 85 85;" xml:space="preserve">
<style type="text/css">
	.st0{fill:#9C846F;}
	.st1{fill:#FFFFFF;}
</style>
<g>
	<rect id="back_2_" x="0" y="0" class="st0" width="85" height="85"/>
	<path id="Facebook-2" class="st1" d="M69.3,13.3H16.6c-1.8,0-3.3,1.5-3.3,3.3v52.7c0,1.8,1.5,3.3,3.3,3.3H45V49.6h-7.7v-9H45v-6.6
		c0-7.7,4.7-11.8,11.5-11.8c2.3,0,4.6,0.1,6.9,0.3v8h-4.7c-3.7,0-4.4,1.8-4.4,4.4v5.7h8.9l-1.2,9h-7.7v22.9h15.1
		c1.8,0,3.3-1.5,3.3-3.3V16.6C72.6,14.8,71.1,13.3,69.3,13.3z"/>
</g>
</svg>
