<?xml version="1.0" encoding="utf-8"?>
<!-- Generator: Adobe Illustrator 24.3.0, SVG Export Plug-In . SVG Version: 6.00 Build 0)  -->
<svg version="1.1" id="Square_Black" xmlns="http://www.w3.org/2000/svg" xmlns:xlink="http://www.w3.org/1999/xlink" x="0px"
	 y="0px" viewBox="0 0 85 85" style="enable-background:new 0 0 85 85;" xml:space="preserve">
<style type="text/css">
	.st0{fill:#9C846F;}
	.st1{fill:#FFFFFF;}
</style>
<g>
	<rect id="back" x="-0.1" class="st0" width="85.1" height="85.1"/>
	<path class="st1" d="M42.4,18.2c8.4,0,9.4,0,12.7,0.2c2,0,4,0.4,5.8,1.1c2.7,1.1,4.9,3.2,6,6c0.7,1.9,1.1,3.8,1.1,5.8
		c0.2,3.3,0.2,4.3,0.2,12.7s0,9.4-0.2,12.7c0,2-0.4,4-1.1,5.8c-1.1,2.7-3.2,4.9-6,6c-1.9,0.7-3.8,1.1-5.8,1.1
		c-3.3,0.2-4.3,0.2-12.7,0.2s-9.4,0-12.7-0.2c-2,0-4-0.4-5.8-1.1c-2.7-1.1-4.9-3.2-5.9-6c-0.7-1.9-1.1-3.8-1.1-5.8
		c-0.2-3.3-0.2-4.3-0.2-12.7s0-9.4,0.2-12.7c0-2,0.4-4,1.1-5.8c1.1-2.7,3.2-4.8,5.9-5.9c1.9-0.7,3.8-1.1,5.8-1.1
		C33,18.2,34,18.2,42.4,18.2 M42.4,12.5c-8.5,0-9.6,0-13,0.2c-2.6,0.1-5.2,0.6-7.6,1.5c-4.3,1.6-7.6,5-9.3,9.3
		c-0.9,2.4-1.4,5-1.5,7.6c-0.1,3.4-0.2,4.4-0.2,13s0,9.6,0.2,13c0.1,2.6,0.6,5.1,1.6,7.5c1.6,4.3,5,7.6,9.3,9.3
		c2.4,0.9,5,1.4,7.6,1.5c3.4,0.1,4.4,0.2,13,0.2s9.6,0,13-0.2c2.6-0.1,5.2-0.6,7.6-1.5c4.3-1.6,7.6-5,9.3-9.3c0.9-2.4,1.4-5,1.5-7.6
		C74,53.6,74,52.5,74,44s0-9.6-0.2-13c-0.1-2.6-0.6-5.2-1.5-7.6c-1.6-4.3-5-7.6-9.3-9.3c-2.4-0.9-5-1.4-7.6-1.5
		c-3.4-0.1-4.4-0.2-13-0.2L42.4,12.5z"/>
	<path class="st1" d="M42.4,27.8c-8.9,0-16.2,7.2-16.2,16.2s7.2,16.2,16.2,16.2S58.5,52.9,58.5,44S51.3,27.8,42.4,27.8L42.4,27.8z
		 M42.4,54.5c-5.8,0-10.5-4.7-10.5-10.5s4.7-10.5,10.5-10.5S52.9,38.2,52.9,44S48.2,54.5,42.4,54.5L42.4,54.5z"/>
</g>
</svg>
